<?xml version="1.0" standalone="no"?>
<svg id="mermaid-1773729752302" width="100%" xmlns="http://www.w3.org/2000/svg" xmlns:xlink="http://www.w3.org/1999/xlink" style="max-width: 1500px; width: 100%; height: auto; transition: width 0.2s cubic-bezier(0.4, 0, 0.2, 1);" viewBox="0 -25 1500 540" preserveAspectRatio="xMinYMin meet" height="565" role="graphics-document document" aria-roledescription="journey"><style>#mermaid-1773729752302{font-family:inherit;font-size:16px;fill:#333;}@keyframes edge-animation-frame{from{stroke-dashoffset:0;}}@keyframes dash{to{stroke-dashoffset:0;}}#mermaid-1773729752302 .edge-animation-slow{stroke-dasharray:9,5!important;stroke-dashoffset:900;animation:dash 50s linear infinite;stroke-linecap:round;}#mermaid-1773729752302 .edge-animation-fast{stroke-dasharray:9,5!important;stroke-dashoffset:900;animation:dash 20s linear infinite;stroke-linecap:round;}#mermaid-1773729752302 .error-icon{fill:#552222;}#mermaid-1773729752302 .error-text{fill:#552222;stroke:#552222;}#mermaid-1773729752302 .edge-thickness-normal{stroke-width:1px;}#mermaid-1773729752302 .edge-thickness-thick{stroke-width:3.5px;}#mermaid-1773729752302 .edge-pattern-solid{stroke-dasharray:0;}#mermaid-1773729752302 .edge-thickness-invisible{stroke-width:0;fill:none;}#mermaid-1773729752302 .edge-pattern-dashed{stroke-dasharray:3;}#mermaid-1773729752302 .edge-pattern-dotted{stroke-dasharray:2;}#mermaid-1773729752302 .marker{fill:#333333;stroke:#333333;}#mermaid-1773729752302 .marker.cross{stroke:#333333;}#mermaid-1773729752302 svg{font-family:inherit;font-size:16px;}#mermaid-1773729752302 p{margin:0;}#mermaid-1773729752302 .label{font-family:inherit;color:#333;}#mermaid-1773729752302 .mouth{stroke:#666;}#mermaid-1773729752302 line{stroke:#333;}#mermaid-1773729752302 .legend{fill:#333;font-family:inherit;}#mermaid-1773729752302 .label text{fill:#333;}#mermaid-1773729752302 .label{color:#333;}#mermaid-1773729752302 .face{fill:#FFF8DC;stroke:#999;}#mermaid-1773729752302 .node rect,#mermaid-1773729752302 .node circle,#mermaid-1773729752302 .node ellipse,#mermaid-1773729752302 .node polygon,#mermaid-1773729752302 .node path{fill:#ECECFF;stroke:#9370DB;stroke-width:1px;}#mermaid-1773729752302 .node .label{text-align:center;}#mermaid-1773729752302 .node.clickable{cursor:pointer;}#mermaid-1773729752302 .arrowheadPath{fill:#333333;}#mermaid-1773729752302 .edgePath .path{stroke:#333333;stroke-width:1.5px;}#mermaid-1773729752302 .flowchart-link{stroke:#333333;fill:none;}#mermaid-1773729752302 .edgeLabel{background-color:rgba(232,232,232, 0.8);text-align:center;}#mermaid-1773729752302 .edgeLabel rect{opacity:0.5;}#mermaid-1773729752302 .cluster text{fill:#333;}#mermaid-1773729752302 div.mermaidTooltip{position:absolute;text-align:center;max-width:200px;padding:2px;font-family:inherit;font-size:12px;background:hsl(80, 100%, 96.2745098039%);border:1px solid #aaaa33;border-radius:2px;pointer-events:none;z-index:100;}#mermaid-1773729752302 .task-type-0,#mermaid-1773729752302 .section-type-0{fill:#ECECFF;}#mermaid-1773729752302 .task-type-1,#mermaid-1773729752302 .section-type-1{fill:#ffffde;}#mermaid-1773729752302 .task-type-2,#mermaid-1773729752302 .section-type-2{fill:hsl(304, 100%, 96.2745098039%);}#mermaid-1773729752302 .task-type-3,#mermaid-1773729752302 .section-type-3{fill:hsl(124, 100%, 93.5294117647%);}#mermaid-1773729752302 .task-type-4,#mermaid-1773729752302 .section-type-4{fill:hsl(176, 100%, 96.2745098039%);}#mermaid-1773729752302 .task-type-5,#mermaid-1773729752302 .section-type-5{fill:hsl(-4, 100%, 93.5294117647%);}#mermaid-1773729752302 .task-type-6,#mermaid-1773729752302 .section-type-6{fill:hsl(8, 100%, 96.2745098039%);}#mermaid-1773729752302 .task-type-7,#mermaid-1773729752302 .section-type-7{fill:hsl(188, 100%, 93.5294117647%);}#mermaid-1773729752302 .label-icon{display:inline-block;height:1em;overflow:visible;vertical-align:-0.125em;}#mermaid-1773729752302 .node .label-icon path{fill:currentColor;stroke:revert;stroke-width:revert;}#mermaid-1773729752302 :root{--mermaid-font-family:inherit;}</style><g/><defs><marker id="arrowhead" refX="5" refY="2" markerWidth="6" markerHeight="4" orient="auto"><path d="M 0,0 V 4 L6,2 Z"/></marker></defs><circle cx="20" cy="60" class="actor-0" fill="#8FBC8F" stroke="#000" r="7"/><text x="40" y="67" class="legend"><tspan x="50">一級主管</tspan></text><circle cx="20" cy="80" class="actor-1" fill="#7CFC00" stroke="#000" r="7"/><text x="40" y="87" class="legend"><tspan x="50">二級主管</tspan></text><circle cx="20" cy="100" class="actor-2" fill="#00FFFF" stroke="#000" r="7"/><text x="40" y="107" class="legend"><tspan x="50">申請人</tspan></text><g><rect x="150" y="50" fill="#191970" stroke="#666" width="1150" height="50" rx="3" ry="3" class="journey-section section-type-0"/><switch><foreignObject x="150" y="50" width="1150" height="50" position="fixed"><div class="journey-section section-type-0" xmlns="http://www.w3.org/1999/xhtml" style="display: table; height: 100%; width: 100%;"><div class="label" style="display: table-cell; text-align: center; vertical-align: middle;">差勤管理資訊系統</div></div></foreignObject><text x="725" y="75" dominant-baseline="central" alignment-baseline="central" class="journey-section section-type-0" style="text-anchor: middle; font-size: 14px; font-family: &quot;Open Sans&quot;, sans-serif;"><tspan x="725" dy="0">差勤管理資訊系統</tspan></text></switch></g><g><line id="task4599" x1="225" y1="110" x2="225" y2="450" class="task-line" stroke-width="1px" stroke-dasharray="4 2" stroke="#666"/><circle cx="225" cy="300" class="face" r="15" stroke-width="2" overflow="visible"/><g><circle cx="220" cy="295" r="1.5" stroke-width="2" fill="#666" stroke="#666"/><circle cx="230" cy="295" r="1.5" stroke-width="2" fill="#666" stroke="#666"/><path class="mouth" d="M7.5,0A7.5,7.5,0,1,1,-7.5,0L-6.818,0A6.818,6.818,0,1,0,6.818,0Z" transform="translate(225,302)"/></g><rect x="150" y="110" fill="#191970" stroke="#666" width="150" height="50" rx="3" ry="3" class="task task-type-0"/><circle cx="164" cy="110" class="actor-2" fill="#00FFFF" stroke="#000" r="7"><title>申請人</title></circle><switch><foreignObject x="150" y="110" width="150" height="50" position="fixed"><div class="task" xmlns="http://www.w3.org/1999/xhtml" style="display: table; height: 100%; width: 100%;"><div class="label" style="display: table-cell; text-align: center; vertical-align: middle;">人事差勤</div></div></foreignObject><text x="225" y="135" dominant-baseline="central" alignment-baseline="central" class="task" style="text-anchor: middle; font-size: 14px; font-family: &quot;Open Sans&quot;, sans-serif;"><tspan x="225" dy="0">人事差勤</tspan></text></switch></g><g><line id="task4600" x1="425" y1="110" x2="425" y2="450" class="task-line" stroke-width="1px" stroke-dasharray="4 2" stroke="#666"/><circle cx="425" cy="300" class="face" r="15" stroke-width="2" overflow="visible"/><g><circle cx="420" cy="295" r="1.5" stroke-width="2" fill="#666" stroke="#666"/><circle cx="430" cy="295" r="1.5" stroke-width="2" fill="#666" stroke="#666"/><path class="mouth" d="M7.5,0A7.5,7.5,0,1,1,-7.5,0L-6.818,0A6.818,6.818,0,1,0,6.818,0Z" transform="translate(425,302)"/></g><rect x="350" y="110" fill="#191970" stroke="#666" width="150" height="50" rx="3" ry="3" class="task task-type-0"/><circle cx="364" cy="110" class="actor-2" fill="#00FFFF" stroke="#000" r="7"><title>申請人</title></circle><switch><foreignObject x="350" y="110" width="150" height="50" position="fixed"><div class="task" xmlns="http://www.w3.org/1999/xhtml" style="display: table; height: 100%; width: 100%;"><div class="label" style="display: table-cell; text-align: center; vertical-align: middle;">表單申請</div></div></foreignObject><text x="425" y="135" dominant-baseline="central" alignment-baseline="central" class="task" style="text-anchor: middle; font-size: 14px; font-family: &quot;Open Sans&quot;, sans-serif;"><tspan x="425" dy="0">表單申請</tspan></text></switch></g><g><line id="task4601" x1="625" y1="110" x2="625" y2="450" class="task-line" stroke-width="1px" stroke-dasharray="4 2" stroke="#666"/><circle cx="625" cy="300" class="face" r="15" stroke-width="2" overflow="visible"/><g><circle cx="620" cy="295" r="1.5" stroke-width="2" fill="#666" stroke="#666"/><circle cx="630" cy="295" r="1.5" stroke-width="2" fill="#666" stroke="#666"/><path class="mouth" d="M7.5,0A7.5,7.5,0,1,1,-7.5,0L-6.818,0A6.818,6.818,0,1,0,6.818,0Z" transform="translate(625,302)"/></g><rect x="550" y="110" fill="#191970" stroke="#666" width="150" height="50" rx="3" ry="3" class="task task-type-0"/><circle cx="564" cy="110" class="actor-2" fill="#00FFFF" stroke="#000" r="7"><title>申請人</title></circle><switch><foreignObject x="550" y="110" width="150" height="50" position="fixed"><div class="task" xmlns="http://www.w3.org/1999/xhtml" style="display: table; height: 100%; width: 100%;"><div class="label" style="display: table-cell; text-align: center; vertical-align: middle;">加班申請單(一般加班/專案加班)</div></div></foreignObject><text x="625" y="135" dominant-baseline="central" alignment-baseline="central" class="task" style="text-anchor: middle; font-size: 14px; font-family: &quot;Open Sans&quot;, sans-serif;"><tspan x="625" dy="0">加班申請單(一般加班/專案加班)</tspan></text></switch></g><g><line id="task4602" x1="825" y1="110" x2="825" y2="450" class="task-line" stroke-width="1px" stroke-dasharray="4 2" stroke="#666"/><circle cx="825" cy="300" class="face" r="15" stroke-width="2" overflow="visible"/><g><circle cx="820" cy="295" r="1.5" stroke-width="2" fill="#666" stroke="#666"/><circle cx="830" cy="295" r="1.5" stroke-width="2" fill="#666" stroke="#666"/><path class="mouth" d="M7.5,0A7.5,7.5,0,1,1,-7.5,0L-6.818,0A6.818,6.818,0,1,0,6.818,0Z" transform="translate(825,302)"/></g><rect x="750" y="110" fill="#191970" stroke="#666" width="150" height="50" rx="3" ry="3" class="task task-type-0"/><circle cx="764" cy="110" class="actor-2" fill="#00FFFF" stroke="#000" r="7"><title>申請人</title></circle><circle cx="774" cy="110" class="actor-1" fill="#7CFC00" stroke="#000" r="7"><title>二級主管</title></circle><switch><foreignObject x="750" y="110" width="150" height="50" position="fixed"><div class="task" xmlns="http://www.w3.org/1999/xhtml" style="display: table; height: 100%; width: 100%;"><div class="label" style="display: table-cell; text-align: center; vertical-align: middle;">經過二級主管簽核</div></div></foreignObject><text x="825" y="135" dominant-baseline="central" alignment-baseline="central" class="task" style="text-anchor: middle; font-size: 14px; font-family: &quot;Open Sans&quot;, sans-serif;"><tspan x="825" dy="0">經過二級主管簽核</tspan></text></switch></g><g><line id="task4603" x1="1025" y1="110" x2="1025" y2="450" class="task-line" stroke-width="1px" stroke-dasharray="4 2" stroke="#666"/><circle cx="1025" cy="300" class="face" r="15" stroke-width="2" overflow="visible"/><g><circle cx="1020" cy="295" r="1.5" stroke-width="2" fill="#666" stroke="#666"/><circle cx="1030" cy="295" r="1.5" stroke-width="2" fill="#666" stroke="#666"/><path class="mouth" d="M7.5,0A7.5,7.5,0,1,1,-7.5,0L-6.818,0A6.818,6.818,0,1,0,6.818,0Z" transform="translate(1025,302)"/></g><rect x="950" y="110" fill="#191970" stroke="#666" width="150" height="50" rx="3" ry="3" class="task task-type-0"/><circle cx="964" cy="110" class="actor-2" fill="#00FFFF" stroke="#000" r="7"><title>申請人</title></circle><circle cx="974" cy="110" class="actor-0" fill="#8FBC8F" stroke="#000" r="7"><title>一級主管</title></circle><switch><foreignObject x="950" y="110" width="150" height="50" position="fixed"><div class="task" xmlns="http://www.w3.org/1999/xhtml" style="display: table; height: 100%; width: 100%;"><div class="label" style="display: table-cell; text-align: center; vertical-align: middle;">經過一級主管簽核</div></div></foreignObject><text x="1025" y="135" dominant-baseline="central" alignment-baseline="central" class="task" style="text-anchor: middle; font-size: 14px; font-family: &quot;Open Sans&quot;, sans-serif;"><tspan x="1025" dy="0">經過一級主管簽核</tspan></text></switch></g><g><line id="task4604" x1="1225" y1="110" x2="1225" y2="450" class="task-line" stroke-width="1px" stroke-dasharray="4 2" stroke="#666"/><circle cx="1225" cy="330" class="face" r="15" stroke-width="2" overflow="visible"/><g><circle cx="1220" cy="325" r="1.5" stroke-width="2" fill="#666" stroke="#666"/><circle cx="1230" cy="325" r="1.5" stroke-width="2" fill="#666" stroke="#666"/><path class="mouth" d="M7.5,0A7.5,7.5,0,1,1,-7.5,0L-6.818,0A6.818,6.818,0,1,0,6.818,0Z" transform="translate(1225,332)"/></g><rect x="1150" y="110" fill="#191970" stroke="#666" width="150" height="50" rx="3" ry="3" class="task task-type-0"/><switch><foreignObject x="1150" y="110" width="150" height="50" position="fixed"><div class="task" xmlns="http://www.w3.org/1999/xhtml" style="display: table; height: 100%; width: 100%;"><div class="label" style="display: table-cell; text-align: center; vertical-align: middle;">主管核可後，系統複查打紀錄</div></div></foreignObject><text x="1225" y="135" dominant-baseline="central" alignment-baseline="central" class="task" style="text-anchor: middle; font-size: 14px; font-family: &quot;Open Sans&quot;, sans-serif;"><tspan x="1225" dy="0">主管核可後，系統複查打紀錄</tspan></text></switch></g><text x="150" font-size="4ex" font-weight="bold" y="25" fill="" font-family="&quot;trebuchet ms&quot;, verdana, arial, sans-serif">加班申請流程 Step1</text><line x1="150" y1="200" x2="1346" y2="200" stroke-width="4" stroke="black" marker-end="url(#arrowhead)"/></svg>